<?xml version="1.0" encoding="UTF-8"?>
<svg version="1.1" xmlns="http://www.w3.org/2000/svg" width="32" height="32">
<path d="M0 0 C2.375 2.375 2.375 2.375 4 5 C4.66 5.66 5.32 6.32 6 7 C7.32 7 8.64 7 10 7 C11.55985209 8.55985209 11.24452344 10.08906098 11.3125 12.25 C11.28444434 15.77940254 11.09426248 16.85232211 9.125 19.9375 C8.42375 20.618125 7.7225 21.29875 7 22 C4.85406086 23.86152669 4.85406086 23.86152669 4.125 26.4375 C2.7951354 29.46663604 1.93803533 30.49127916 -1 32 C-4.5 32.4375 -4.5 32.4375 -8 32 C-9.35573748 30.68945377 -10.68612831 29.35251497 -12 28 C-14.93738096 26.77694416 -17.93952159 25.86321186 -21 25 C-21.16168475 22.17051692 -21.10957047 20.26022986 -20 17.625 C-18.77681681 14.90343112 -18.77681681 14.90343112 -19.0625 11.375 C-19 8 -19 8 -17.8125 6.0625 C-15.43958382 4.67148017 -13.70313576 4.78082683 -11 5 C-10.87625 4.360625 -10.7525 3.72125 -10.625 3.0625 C-10.41875 2.381875 -10.2125 1.70125 -10 1 C-6.79579625 -0.60210187 -3.46634747 -0.63274597 0 0 Z " fill="#E9E8E0" transform="translate(21,0)"/>
<path d="M0 0 C2.625 0.25 2.625 0.25 4.5 1.5 C5.625 3.25 5.625 3.25 5.375 5.375 C4.625 7.25 4.625 7.25 3.625 8.25 C5.605 8.25 7.585 8.25 9.625 8.25 C9.955 7.26 10.285 6.27 10.625 5.25 C10.955 5.25 11.285 5.25 11.625 5.25 C11.8125 8.625 11.8125 8.625 11.625 12.25 C10.635 12.91 9.645 13.57 8.625 14.25 C8.625 12.6 8.625 10.95 8.625 9.25 C6.645 9.25 4.665 9.25 2.625 9.25 C2.295 9.91 1.965 10.57 1.625 11.25 C1.625 9.6 1.625 7.95 1.625 6.25 C0.635 8.56 -0.355 10.87 -1.375 13.25 C-1.705 12.59 -2.035 11.93 -2.375 11.25 C-2.705 12.57 -3.035 13.89 -3.375 15.25 C-1.395 15.25 0.585 15.25 2.625 15.25 C3.285 13.93 3.945 12.61 4.625 11.25 C4.955 12.57 5.285 13.89 5.625 15.25 C5.955 14.59 6.285 13.93 6.625 13.25 C7.615 14.57 8.605 15.89 9.625 17.25 C7.975 17.58 6.325 17.91 4.625 18.25 C4.625 18.91 4.625 19.57 4.625 20.25 C5.615 20.58 6.605 20.91 7.625 21.25 C7.625 21.58 7.625 21.91 7.625 22.25 C5.645 22.25 3.665 22.25 1.625 22.25 C1.625 22.91 1.625 23.57 1.625 24.25 C0.965 24.25 0.305 24.25 -0.375 24.25 C-0.375 23.59 -0.375 22.93 -0.375 22.25 C-2.355 22.25 -4.335 22.25 -6.375 22.25 C-5.715 21.26 -5.055 20.27 -4.375 19.25 C-1.735 19.58 0.905 19.91 3.625 20.25 C1.73531214 17.89862426 1.73531214 17.89862426 -1.4375 18.1875 C-2.406875 18.208125 -3.37625 18.22875 -4.375 18.25 C-4.705 17.92 -5.035 17.59 -5.375 17.25 C-5.705 17.91 -6.035 18.57 -6.375 19.25 C-7.035 19.25 -7.695 19.25 -8.375 19.25 C-8.375 19.91 -8.375 20.57 -8.375 21.25 C-9.695 20.92 -11.015 20.59 -12.375 20.25 C-11.7975 19.775625 -11.22 19.30125 -10.625 18.8125 C-8.04773209 15.87727822 -6.78811087 13.0485816 -5.3046875 9.46875 C-4.41406882 7.34323988 -3.42758972 5.29928972 -2.375 3.25 C-5.015 3.25 -7.655 3.25 -10.375 3.25 C-10.375 2.92 -10.375 2.59 -10.375 2.25 C-8.6734375 2.0334375 -8.6734375 2.0334375 -6.9375 1.8125 C-3.6968532 1.30081893 -2.96601456 0.31221206 0 0 Z " fill="#47593B" transform="translate(16.375,3.75)"/>
<path d="M0 0 C2.375 2.375 2.375 2.375 4 5 C4.66 5.66 5.32 6.32 6 7 C7.32 7 8.64 7 10 7 C11 8 11 8 11.25 10.875 C11 14 11 14 9.5 15.875 C9.005 16.24625 8.51 16.6175 8 17 C7.34 16.67 6.68 16.34 6 16 C6 14.02 6 12.04 6 10 C5.67 10.66 5.34 11.32 5 12 C3.02 12 1.04 12 -1 12 C-0.79375 11.21625 -0.5875 10.4325 -0.375 9.625 C-0.25125 8.75875 -0.1275 7.8925 0 7 C-1.83883881 4.71271266 -1.83883881 4.71271266 -4.625 4.875 C-5.40875 4.91625 -6.1925 4.9575 -7 5 C-7 6.32 -7 7.64 -7 9 C-7.66 9.66 -8.32 10.32 -9 11 C-9 10.01 -9 9.02 -9 8 C-10.65 8.33 -12.3 8.66 -14 9 C-13.979375 9.9075 -13.95875 10.815 -13.9375 11.75 C-13.9889755 14.42672588 -14.2215017 16.46988052 -15 19 C-16.32 19 -17.64 19 -19 19 C-19.08114106 17.22992286 -19.13925505 15.45877902 -19.1875 13.6875 C-19.22230469 12.70136719 -19.25710937 11.71523437 -19.29296875 10.69921875 C-19 8 -19 8 -17.65625 6.15625 C-15.39016195 4.574264 -13.6974415 4.78128853 -11 5 C-10.87625 4.360625 -10.7525 3.72125 -10.625 3.0625 C-10.41875 2.381875 -10.2125 1.70125 -10 1 C-6.79579625 -0.60210187 -3.46634747 -0.63274597 0 0 Z " fill="#C8CCBC" transform="translate(21,0)"/>
<path d="M0 0 C1.2065625 0.0309375 1.2065625 0.0309375 2.4375 0.0625 C2.2748742 6.5823162 1.22427724 11.3950607 -3.5625 16.0625 C-6.375 17.5 -6.375 17.5 -8.5625 18.0625 C-9.5625 17.0625 -9.5625 17.0625 -9.6875 14.5625 C-9.5625 12.0625 -9.5625 12.0625 -8.5625 11.0625 C-6.89632885 11.02186168 -5.22861905 11.019779 -3.5625 11.0625 C-3.8925 9.7425 -4.2225 8.4225 -4.5625 7.0625 C-3.9025 7.0625 -3.2425 7.0625 -2.5625 7.0625 C-2.748125 6.093125 -2.93375 5.12375 -3.125 4.125 C-3.269375 3.114375 -3.41375 2.10375 -3.5625 1.0625 C-2.5625 0.0625 -2.5625 0.0625 0 0 Z " fill="#A6AD95" transform="translate(9.5625,7.9375)"/>
<path d="M0 0 C0.66 0.33 1.32 0.66 2 1 C2 1.33 2 1.66 2 2 C5.465 1.505 5.465 1.505 9 1 C9.66 2.65 10.32 4.3 11 6 C10.01 5.34 9.02 4.68 8 4 C5.37468476 3.83286431 5.37468476 3.83286431 3 4 C3 5.32 3 6.64 3 8 C2.34 8.66 1.68 9.32 1 10 C1 9.01 1 8.02 1 7 C-0.65 7.33 -2.3 7.66 -4 8 C-3.979375 8.9075 -3.95875 9.815 -3.9375 10.75 C-3.9889755 13.42672588 -4.2215017 15.46988052 -5 18 C-6.32 18 -7.64 18 -9 18 C-9.08114106 16.22992286 -9.13925505 14.45877902 -9.1875 12.6875 C-9.22230469 11.70136719 -9.25710938 10.71523437 -9.29296875 9.69921875 C-9 7 -9 7 -7.65625 5.15625 C-5.39016195 3.574264 -3.6974415 3.78128853 -1 4 C-0.67 2.68 -0.34 1.36 0 0 Z " fill="#DDDEC9" transform="translate(11,1)"/>
<path d="M0 0 C0.33 0.99 0.66 1.98 1 3 C1.33 2.34 1.66 1.68 2 1 C2.66 0.67 3.32 0.34 4 0 C4 1.32 4 2.64 4 4 C5.98 4 7.96 4 10 4 C10 5.65 10 7.3 10 9 C10.66 9.33 11.32 9.66 12 10 C9.69 10 7.38 10 5 10 C5 9.34 5 8.68 5 8 C4.67 8.66 4.34 9.32 4 10 C2.02 10 0.04 10 -2 10 C-1.85950482 8.52031676 -1.71245174 7.04125484 -1.5625 5.5625 C-1.48128906 4.73878906 -1.40007813 3.91507813 -1.31640625 3.06640625 C-1 1 -1 1 0 0 Z " fill="#C0C6C5" transform="translate(15,9)"/>
<path d="M0 0 C0.66 1.32 1.32 2.64 2 4 C2.33 3.34 2.66 2.68 3 2 C3.99 3.32 4.98 4.64 6 6 C4.35 6.33 2.7 6.66 1 7 C1 7.66 1 8.32 1 9 C1.99 9.33 2.98 9.66 4 10 C4 10.33 4 10.66 4 11 C2.02 11 0.04 11 -2 11 C-2 11.66 -2 12.32 -2 13 C-2.66 13 -3.32 13 -4 13 C-4 12.34 -4 11.68 -4 11 C-5.98 11 -7.96 11 -10 11 C-9.34 10.01 -8.68 9.02 -8 8 C-5.36 8.33 -2.72 8.66 0 9 C-0.66 8.34 -1.32 7.68 -2 7 C-2.66 7 -3.32 7 -4 7 C-4 6.34 -4 5.68 -4 5 C-4.99 4.67 -5.98 4.34 -7 4 C-5.02 4 -3.04 4 -1 4 C-0.67 2.68 -0.34 1.36 0 0 Z " fill="#274136" transform="translate(20,15)"/>
<path d="M0 0 C7.32215357 -0.36010591 7.32215357 -0.36010591 10 1.0625 C11.54647662 4.05879845 11.2404438 6.69389773 11 10 C10.67 10.66 10.34 11.32 10 12 C9.01 12 8.02 12 7 12 C7.309375 10.329375 7.309375 10.329375 7.625 8.625 C7.74875 7.42875 7.8725 6.2325 8 5 C7.34 4.34 6.68 3.68 6 3 C4.0068433 2.97624074 4.0068433 2.97624074 1.875 3.375 C0.59625 3.58125 -0.6825 3.7875 -2 4 C-1.34 2.68 -0.68 1.36 0 0 Z " fill="#9BA179" transform="translate(13,0)"/>
<path d="M0 0 C0.33 0.99 0.66 1.98 1 3 C-0.75 5.5 -0.75 5.5 -3 8 C-3.495 8.61875 -3.99 9.2375 -4.5 9.875 C-5.2425 10.431875 -5.2425 10.431875 -6 11 C-8.1875 10.6875 -8.1875 10.6875 -10 10 C-10 8 -10 8 -7.8125 5.4375 C-4.98690982 2.98865517 -3.64441732 2.31237863 0 2 C0 1.34 0 0.68 0 0 Z " fill="#B6BBAA" transform="translate(31,14)"/>
<path d="M0 0 C1.2065625 0.0309375 1.2065625 0.0309375 2.4375 0.0625 C2.1075 1.3825 1.7775 2.7025 1.4375 4.0625 C0.7775 4.0625 0.1175 4.0625 -0.5625 4.0625 C-0.2325 5.0525 0.0975 6.0425 0.4375 7.0625 C-0.5525 8.0525 -1.5425 9.0425 -2.5625 10.0625 C-3.2225 9.0725 -3.8825 8.0825 -4.5625 7.0625 C-3.9025 7.0625 -3.2425 7.0625 -2.5625 7.0625 C-2.748125 6.093125 -2.93375 5.12375 -3.125 4.125 C-3.269375 3.114375 -3.41375 2.10375 -3.5625 1.0625 C-2.5625 0.0625 -2.5625 0.0625 0 0 Z " fill="#17332B" transform="translate(9.5625,7.9375)"/>
<path d="M0 0 C1.98 0 3.96 0 6 0 C6 1.65 6 3.3 6 5 C6.66 5.33 7.32 5.66 8 6 C5.69 6 3.38 6 1 6 C1 5.34 1 4.68 1 4 C0.34 4.66 -0.32 5.32 -1 6 C-0.67 4.02 -0.34 2.04 0 0 Z " fill="#D4D9D7" transform="translate(19,13)"/>
<path d="M0 0 C1 3 1 3 0.00390625 5.26171875 C-0.47175781 6.06222656 -0.94742187 6.86273438 -1.4375 7.6875 C-2.14712891 8.89986328 -2.14712891 8.89986328 -2.87109375 10.13671875 C-3.42990234 11.05904297 -3.42990234 11.05904297 -4 12 C-5.65 12 -7.3 12 -9 12 C-9 11.34 -9 10.68 -9 10 C-8.21625 9.773125 -7.4325 9.54625 -6.625 9.3125 C-3.80645296 8.2226255 -3.80645296 8.2226255 -2.6875 5.5 C-1.91161451 3.11073296 -1.91161451 3.11073296 -2 1 C-1.34 0.67 -0.68 0.34 0 0 Z " fill="#DADEDD" transform="translate(11,11)"/>
<path d="M0 0 C0.66 0.33 1.32 0.66 2 1 C4.3329866 1.04022391 6.66706666 1.04320247 9 1 C9.33 1.99 9.66 2.98 10 4 C8.01432292 3.93489583 6.02864583 3.86979167 4.04296875 3.8046875 C1.68640281 3.86745538 1.68640281 3.86745538 -1 6 C-1.33 5.01 -1.66 4.02 -2 3 C-1.34 3 -0.68 3 0 3 C0 2.01 0 1.02 0 0 Z " fill="#909D96" transform="translate(10,20)"/>
<path d="M0 0 C2.64 0 5.28 0 8 0 C8.33 0.66 8.66 1.32 9 2 C5.37 2.66 1.74 3.32 -2 4 C-1.34 2.68 -0.68 1.36 0 0 Z " fill="#8D9B97" transform="translate(13,0)"/>
<path d="M0 0 C3.63 0.66 7.26 1.32 11 2 C9.68 2.33 8.36 2.66 7 3 C7 3.66 7 4.32 7 5 C6.34 5 5.68 5 5 5 C5 4.34 5 3.68 5 3 C3.02 3 1.04 3 -1 3 C-0.67 2.01 -0.34 1.02 0 0 Z " fill="#6B711F" transform="translate(11,23)"/>
<path d="M0 0 C0.804375 0.495 0.804375 0.495 1.625 1 C4.57217367 2.24091523 6.82934784 2.20678166 10 2 C10.66 1.67 11.32 1.34 12 1 C11.67 1.99 11.34 2.98 11 4 C5.65924276 5.21380846 5.65924276 5.21380846 2.6875 4.25 C1 3 1 3 0 0 Z " fill="#A1A993" transform="translate(10,26)"/>
<path d="M0 0 C1 3 1 3 0.0625 5.1875 C-0.4634375 6.0846875 -0.4634375 6.0846875 -1 7 C-1.66 7 -2.32 7 -3 7 C-3 7.66 -3 8.32 -3 9 C-4.32 8.67 -5.64 8.34 -7 8 C-6.401875 7.4225 -5.80375 6.845 -5.1875 6.25 C-3.2517316 4.25892393 -1.61090717 2.25527003 0 0 Z " fill="#183426" transform="translate(11,16)"/>
<path d="M0 0 C1.32 0.33 2.64 0.66 4 1 C4 1.66 4 2.32 4 3 C4.66 3 5.32 3 6 3 C6 2.34 6 1.68 6 1 C6.99 1 7.98 1 9 1 C8.67 1.99 8.34 2.98 8 4 C6.02 4 4.04 4 2 4 C1.34 2.68 0.68 1.36 0 0 Z " fill="#F1D511" transform="translate(12,25)"/>
<path d="M0 0 C0.33 0 0.66 0 1 0 C1.1875 3.375 1.1875 3.375 1 7 C0.01 7.66 -0.98 8.32 -2 9 C-2.25 3.375 -2.25 3.375 0 0 Z " fill="#2A4337" transform="translate(27,9)"/>
<path d="M0 0 C0.33 0.66 0.66 1.32 1 2 C3.52733235 2.65555119 3.52733235 2.65555119 6 3 C3.16443413 4.41778293 1.0091294 3.86257622 -2.125 3.5625 C-3.22070312 3.46066406 -4.31640625 3.35882813 -5.4453125 3.25390625 C-6.70988281 3.12822266 -6.70988281 3.12822266 -8 3 C-8 2.67 -8 2.34 -8 2 C-6.865625 1.855625 -5.73125 1.71125 -4.5625 1.5625 C-1.19222799 1.38828522 -1.19222799 1.38828522 0 0 Z " fill="#888A30" transform="translate(14,4)"/>
<path d="M0 0 C1.32 0.66 2.64 1.32 4 2 C3.34 3.65 2.68 5.3 2 7 C1.01 7 0.02 7 -1 7 C-0.67 4.69 -0.34 2.38 0 0 Z " fill="#E0E0CD" transform="translate(24,5)"/>
</svg>
